<?xml version="1.0" encoding="UTF-8" standalone="no"?>
<svg xmlns="http://www.w3.org/2000/svg" xmlns:xlink="http://www.w3.org/1999/xlink" version="1.1">
<g xmlns="http://www.w3.org/2000/svg" fill="none" fill-rule="nonzero" stroke="none" stroke-width="1" stroke-linecap="butt" stroke-linejoin="miter" stroke-miterlimit="10" stroke-dasharray="" stroke-dashoffset="0" font-family="none" font-weight="none" font-size="none" text-anchor="none" style="mix-blend-mode: normal"><g data-paper-data="{&quot;isImportedGroup&quot;:true}"><path d="M437.82401,-44.601c202.0128,0 404.02561,0 612.16001,0c0,202.0128 0,404.02561 0,612.16001c-202.0128,0 -404.02561,0 -612.16001,0c0,-202.0128 0,-404.02561 0,-612.16001z" fill="#fefefe"/><path d="M634.3969,195.54215c1.1996,0.35452 2.39921,0.70904 3.63517,1.0743c3.83402,1.13514 7.66325,2.28551 11.49229,3.43731c3.751,1.11883 7.50297,2.23434 11.25551,3.34803c2.48296,0.7369 4.96531,1.47584 7.44704,2.21684c9.74097,2.89332 19.5302,5.58162 29.37117,8.11436c1.0252,0.27043 2.05041,0.54085 3.10668,0.81947c0.89969,0.2319 1.79938,0.46379 2.72633,0.70271c2.21292,0.79007 2.21292,0.79007 4.60417,3.18132c-0.10275,2.39592 -0.10275,2.39592 -1.19563,4.7825c-2.36323,1.30304 -2.36323,1.30304 -5.52977,2.31652c-1.7547,0.58028 -1.7547,0.58028 -3.54484,1.17227c-1.3455,0.42692 -2.691,0.85384 -4.07727,1.2937c-2.37554,0.79146 -4.74806,1.59153 -7.12033,2.39271c-3.60047,1.20777 -7.20799,2.39443 -10.81404,3.58542c-0.39456,11.83669 -0.78911,23.67338 -1.19563,35.86875c-13.05055,5.22022 -13.05055,5.22022 -18.23328,6.80012c-4.95523,1.59575 -9.74632,3.43632 -14.53899,5.45971c-1.15939,0.48828 -2.31879,0.97657 -3.51332,1.47964c-2.32603,0.9877 -4.64671,1.98815 -6.96125,3.00249c-12.31674,5.2273 -19.73665,3.25693 -31.92809,-1.42302c-11.90891,-4.44172 -23.7779,-8.31361 -36.0182,-11.73207c-0.39456,-11.83669 -0.78911,-23.67338 -1.19563,-35.86875c-3.55101,-0.78911 -7.10201,-1.57823 -10.76063,-2.39125c-2.4036,-0.75903 -4.80138,-1.53963 -7.17375,-2.39125c-0.0644,2.54038 -0.11087,5.08121 -0.14945,7.62211c-0.02774,1.41485 -0.05548,2.82971 -0.08407,4.28744c-0.15944,3.76694 -0.15944,3.76694 2.62477,6.02483c0,1.57823 0,3.15645 0,4.7825c-0.78911,0 -1.57823,0 -2.39125,0c0.54251,1.33163 1.08503,2.66325 1.64398,4.03523c1.92978,5.76192 2.6997,11.47441 3.3627,17.48602c0.09999,0.89295 0.19998,1.78591 0.30299,2.70592c0.63913,6.29648 0.75006,12.48754 0.66845,18.81533c-1.94278,0.03226 -3.88572,0.05546 -5.82867,0.07473c-1.62292,0.02081 -1.62292,0.02081 -3.27863,0.04203c-2.84895,-0.11676 -2.84895,-0.11676 -5.2402,-1.31239c-0.07062,-4.30915 -0.11232,-8.61814 -0.14945,-12.9277c-0.02004,-1.20139 -0.04007,-2.40279 -0.06072,-3.64058c-0.04795,-7.45559 0.61078,-14.31133 2.20035,-21.60152c0.19853,-1.22832 0.19853,-1.22832 0.40107,-2.48145c-0.39456,-0.39456 -0.78911,-0.78911 -1.19563,-1.19563c-0.04859,-1.99212 -0.05108,-3.98607 0,-5.97813c0.78911,0 1.57823,0 2.39125,0c-0.59183,-8.87752 -0.59183,-8.87752 -1.19563,-17.93438c-5.12923,-1.57823 -10.25846,-3.15645 -15.54313,-4.7825c-0.39456,-1.97278 -0.78911,-3.94556 -1.19563,-5.97813c8.07395,-3.38267 16.17559,-6.20647 24.5757,-8.65894c1.17366,-0.34775 2.34733,-0.69551 3.55655,-1.0538c3.72309,-1.10191 7.4484,-2.19602 11.17392,-3.28968c3.6684,-1.08287 7.33632,-2.16733 11.00414,-3.25214c2.41447,-0.7129 4.8296,-1.42355 7.24541,-2.1319c5.82604,-1.71036 11.63942,-3.44986 17.43355,-5.26567c1.08023,-0.33523 2.16045,-0.67046 3.27341,-1.01585c2.01319,-0.62678 4.02356,-1.2627 6.0303,-1.90983c10.43561,-3.23221 18.31883,-1.83115 28.58616,1.29221z" fill="#0f3a76"/><path d="M847.92339,259.08776c0.78911,0 1.57823,0 2.39125,0c0,2.76189 0,5.52379 0,8.36938c0.93707,0.27126 1.87414,0.54251 2.83961,0.82199c3.13852,1.56926 3.13852,1.56926 4.67041,4.14732c1.14593,4.53388 0.12515,7.1555 -1.38244,11.54525c-0.46545,1.38865 -0.93091,2.77731 -1.41046,4.20804c-0.55947,1.579 -0.55947,1.579 -1.13024,3.18989c9.47974,-5.09335 13.49802,-14.01026 16.73875,-23.9125c1.97278,0.39456 3.94556,0.78911 5.97813,1.19563c-0.39456,3.15645 -0.78911,6.3129 -1.19563,9.565c0.84383,-0.9941 0.84383,-0.9941 1.7047,-2.00828c0.74442,-0.86617 1.48883,-1.73235 2.25581,-2.62477c1.10275,-1.29001 1.10275,-1.29001 2.22779,-2.60609c2.18108,-2.32586 2.18108,-2.32586 5.76796,-4.71711c5.42878,0.64628 5.42878,0.64628 7.17375,2.39125c0.90487,7.7958 -0.72416,14.31334 -3.58688,21.52125c2.36734,-0.78911 4.73468,-1.57823 7.17375,-2.39125c-1.63781,3.77956 -2.37817,4.77378 -5.97813,7.17375c-3.06379,0.29891 -3.06379,0.29891 -5.97813,0c-2.39125,-2.39125 -2.39125,-2.39125 -2.44729,-4.68442c0.76135,-5.82035 1.85726,-11.24176 3.64292,-16.83683c-9.92112,2.62618 -15.14745,13.42347 -20.32563,21.52125c-2.31652,-0.44836 -2.31652,-0.44836 -4.7825,-1.19563c-0.59183,-1.18367 -0.59183,-1.18367 -1.19563,-2.39125c-1.59055,1.22066 -1.59055,1.22066 -3.21324,2.46598c-3.96051,2.31652 -3.96051,2.31652 -7.24848,2.16707c-2.69016,-1.04617 -2.69016,-1.04617 -5.08141,-3.43742c0.274,-4.65807 1.1536,-8.55763 3.06379,-12.77824c2.03602,-3.97215 2.03602,-3.97215 1.71871,-8.74301c-0.78911,0 -1.57823,0 -2.39125,0c-0.86926,1.66685 -0.86926,1.66685 -1.75607,3.36737c-9.66833,18.03408 -9.66833,18.03408 -17.37393,21.74076c-3.13852,-0.21484 -3.13852,-0.21484 -5.97813,-1.19563c-2.16707,-3.06379 -2.16707,-3.06379 -3.58688,-5.97813c-1.01105,1.20833 -2.0221,2.41666 -3.06379,3.6616c-3.20429,3.21188 -3.70239,3.49833 -8.51883,3.6616c-4.18233,-1.42041 -5.46111,-2.3232 -7.54738,-6.12758c-1.15901,0.98639 -2.31802,1.97278 -3.51215,2.98906c-4.40388,3.14179 -7.83067,3.8415 -13.19391,3.47479c-2.42394,-0.48572 -2.42394,-0.48572 -5.56246,-2.20443c-2.1327,-3.97457 -2.04747,-6.49962 -1.33574,-10.90074c2.24476,-7.39589 7.34615,-14.54889 14.03925,-18.4668c4.33414,-1.04617 4.33414,-1.04617 8.36938,-1.19563c1.18367,0.78911 2.36734,1.57823 3.58688,2.39125c0.9057,4.98134 0.23359,6.8267 -2.61543,11.05953c-4.45294,4.35399 -7.11677,5.59529 -13.30133,5.82867c-1.06037,-0.04932 -2.12074,-0.09864 -3.21324,-0.14945c-0.05087,2.39071 -0.04879,4.783 0,7.17375c1.29694,1.54431 1.29694,1.54431 4.40887,1.56926c5.01565,-0.47317 7.14688,-2.10726 11.13426,-5.15613c2.82089,-3.33332 2.82089,-3.33332 5.30559,-7.0243c4.56893,-6.32087 9.09018,-12.12984 16.21566,-15.69258c7.45609,-0.54226 7.45609,-0.54226 10.76063,1.4198c1.19563,2.16707 1.19563,2.16707 0.82199,5.38031c-0.27126,0.91241 -0.54251,1.82482 -0.82199,2.76488c-0.78911,0 -1.57823,0 -2.39125,0c-0.59183,-2.95917 -0.59183,-2.95917 -1.19563,-5.97813c-7.41805,2.61814 -11.69665,5.74636 -15.51043,12.96039c-1.55346,3.41762 -2.42394,5.97684 -2.42394,9.75649c2.22384,-0.05499 2.22384,-0.05499 4.7825,-1.19563c2.41642,-3.01296 4.54147,-6.07363 6.64366,-9.30579c1.34741,-1.94523 1.34741,-1.94523 4.11697,-5.04171c3.33,-0.44369 3.33,-0.44369 5.97813,0c-0.17262,1.01105 -0.34524,2.0221 -0.52309,3.06379c-0.67957,4.15292 -1.28473,8.31193 -1.86816,12.47934c7.38452,-3.25788 11.33068,-10.27622 14.52031,-17.40662c1.19877,-3.108 1.19877,-3.108 1.62063,-7.32787c0.59781,-3.96051 0.59781,-3.96051 2.98906,-6.35176z" fill="#133d77"/><path d="M913.68276,260.28338c2.5407,0.44836 2.5407,0.44836 4.7825,1.19563c-0.25893,0.92474 -0.25893,0.92474 -0.52309,1.86816c-0.22194,0.96173 -0.44388,1.92346 -0.67254,2.91434c-0.29592,1.23299 -0.59183,2.46598 -0.89672,3.73633c-0.39309,6.09297 1.26074,10.89702 3.28797,16.5893c6.00457,-2.82877 8.15566,-6.5454 11.13426,-12.18043c0.42923,-0.78218 0.85847,-1.56435 1.30071,-2.37023c1.04975,-1.91755 2.08087,-3.84529 3.10816,-5.77496c1.97278,0 3.94556,0 5.97813,0c-0.69856,5.72819 -2.51963,10.26311 -4.7825,15.54313c-0.47543,2.37716 -0.90216,4.76734 -1.19563,7.17375c8.95927,-5.3329 14.28656,-12.39323 19.13,-21.52125c2.95917,0.59183 2.95917,0.59183 5.97813,1.19563c-0.68229,7.67581 -3.19644,14.3665 -5.97813,21.52125c5.58655,-3.37791 9.15844,-6.78828 13.15188,-11.95625c0.59183,1.18367 0.59183,1.18367 1.19563,2.39125c-2.83009,5.14562 -5.62611,7.86126 -10.46172,11.20898c-6.55008,4.96306 -9.12421,10.52582 -12.45161,17.79601c-2.96134,6.35315 -5.61375,10.32668 -11.7598,14.0375c-3.3627,0.59781 -3.3627,0.59781 -5.97813,0c-2.39125,-2.39125 -2.39125,-2.39125 -2.46598,-6.12758c1.27828,-7.08198 6.79028,-12.17419 12.46065,-16.20165c0.94324,-0.64578 1.88647,-1.29156 2.85829,-1.9569c6.28738,-4.60575 7.4948,-10.10173 8.66828,-17.56074c-0.52094,0.66273 -1.04188,1.32546 -1.5786,2.00828c-7.61007,9.25727 -7.61007,9.25727 -13.96453,9.94797c-3.3627,-1.34508 -3.3627,-1.34508 -5.97813,-3.58688c-0.76128,-2.53136 -0.76128,-2.53136 -1.19563,-4.7825c-0.74904,0.76291 -1.49808,1.52582 -2.26982,2.31185c-0.97714,0.98793 -1.95429,1.97586 -2.96104,2.99373c-0.97098,0.98485 -1.94196,1.9697 -2.94236,2.98439c-4.00323,3.82258 -6.72955,4.01339 -12.2645,3.92314c-2.27916,-0.25687 -2.27916,-0.25687 -4.59568,-1.67668c-1.57088,-2.67974 -1.99588,-5.08959 -2.46598,-8.1452c-0.39456,-0.78911 -0.78911,-1.57823 -1.19563,-2.39125c0.64886,-0.83843 1.29772,-1.67686 1.96624,-2.5407c4.97997,-6.60407 8.61842,-12.33192 11.18563,-20.17617c0.78911,-0.78911 1.57823,-1.57823 2.39125,-2.39125z" fill="#153e77"/><path d="M847.92339,259.08776c0.78911,0 1.57823,0 2.39125,0c0,2.76189 0,5.52379 0,8.36938c1.40561,0.40689 1.40561,0.40689 2.83961,0.82199c3.13852,1.56926 3.13852,1.56926 4.67041,4.14732c1.14593,4.53388 0.12515,7.1555 -1.38244,11.54525c-0.46545,1.38865 -0.93091,2.77731 -1.41046,4.20804c-0.55947,1.579 -0.55947,1.579 -1.13024,3.18989c9.47974,-5.09335 13.49802,-14.01026 16.73875,-23.9125c2.95917,0.59183 2.95917,0.59183 5.97813,1.19563c-0.39456,3.15645 -0.78911,6.3129 -1.19563,9.565c0.56255,-0.66273 1.1251,-1.32546 1.7047,-2.00828c0.74442,-0.86617 1.48883,-1.73235 2.25581,-2.62477c1.10275,-1.29001 1.10275,-1.29001 2.22779,-2.60609c2.18108,-2.32586 2.18108,-2.32586 5.76796,-4.71711c5.42878,0.64628 5.42878,0.64628 7.17375,2.39125c0.90487,7.7958 -0.72416,14.31334 -3.58688,21.52125c2.36734,-0.78911 4.73468,-1.57823 7.17375,-2.39125c-1.63781,3.77956 -2.37817,4.77378 -5.97813,7.17375c-3.06379,0.29891 -3.06379,0.29891 -5.97813,0c-2.39125,-2.39125 -2.39125,-2.39125 -2.44729,-4.68442c0.76135,-5.82035 1.85726,-11.24176 3.64292,-16.83683c-9.92112,2.62618 -15.14745,13.42347 -20.32563,21.52125c-2.31652,-0.44836 -2.31652,-0.44836 -4.7825,-1.19563c-0.39456,-0.78911 -0.78911,-1.57823 -1.19563,-2.39125c-1.59055,1.22066 -1.59055,1.22066 -3.21324,2.46598c-3.96051,2.31652 -3.96051,2.31652 -7.24848,2.16707c-2.69016,-1.04617 -2.69016,-1.04617 -5.08141,-3.43742c0.274,-4.65807 1.1536,-8.55763 3.06379,-12.77824c2.03602,-3.97215 2.03602,-3.97215 1.71871,-8.74301c-0.78911,0 -1.57823,0 -2.39125,0c-1.57823,3.15645 -3.15645,6.3129 -4.7825,9.565c-0.78911,-0.78911 -1.57823,-1.57823 -2.39125,-2.39125c0.56717,-1.20833 1.13435,-2.41666 1.71871,-3.6616c1.87216,-4.30421 2.42595,-8.43 3.06379,-13.07715c0.78911,-0.78911 1.57823,-1.57823 2.39125,-2.39125z" fill="#143d77"/><path d="M783.35964,235.17526c2.39125,3.58688 2.39125,3.58688 2.16707,7.0243c-1.01271,3.89504 -2.10159,6.52981 -4.55832,9.71445c-2.61543,0.97145 -2.61543,0.97145 -4.7825,1.19563c0.79507,-5.24747 2.61552,-9.54246 4.7825,-14.3475c-3.29254,-0.24305 -3.29254,-0.24305 -7.17375,1.19563c-7.79833,7.46439 -11.45941,17.17384 -15.24422,27.05102c-1.11435,2.83039 -2.22901,5.66067 -3.34401,8.49081c-0.50784,1.30581 -1.01567,2.61162 -1.5389,3.95701c-1.57799,4.01107 -3.24563,7.96798 -4.98099,11.91305c1.18367,-0.59183 1.18367,-0.59183 2.39125,-1.19563c3.44783,-0.08602 6.86575,-0.11109 10.31227,-0.07473c0.95865,0.00539 1.9173,0.01079 2.905,0.01635c2.36949,0.0141 4.73894,0.03555 7.10836,0.05838c0,1.18367 0,2.36734 0,3.58688c-8.11879,2.70626 -17.41598,2.42952 -25.93012,2.69016c-0.94169,0.03082 -1.88339,0.06165 -2.85362,0.09341c-0.75983,-0.12946 -1.51966,-0.25893 -2.30251,-0.39231c-0.78911,-1.18367 -1.57823,-2.36734 -2.39125,-3.58688c0.737,-0.64876 1.474,-1.29753 2.23333,-1.96595c2.87119,-3.17235 3.8075,-5.55714 5.07586,-9.62134c0.43232,-1.32777 0.86463,-2.65555 1.31005,-4.02356c0.86897,-2.76071 1.73464,-5.52245 2.59675,-8.28531c4.46455,-13.67711 10.67268,-26.18939 23.43378,-33.69c3.83734,-1.58838 6.83668,-0.75412 10.78398,0.19616z" fill="#153e78"/><path d="M913.68276,260.28338c2.5407,0.44836 2.5407,0.44836 4.7825,1.19563c-0.25893,0.92474 -0.25893,0.92474 -0.52309,1.86816c-0.22194,0.96173 -0.44388,1.92346 -0.67254,2.91434c-0.29592,1.23299 -0.59183,2.46598 -0.89672,3.73633c-0.39309,6.09297 1.26074,10.89702 3.28797,16.5893c2.36734,-1.18367 4.73468,-2.36734 7.17375,-3.58688c-1.66659,3.77482 -3.63034,6.31441 -6.57594,9.19137c-0.72746,0.71976 -1.45493,1.43951 -2.20443,2.18108c-3.66917,3.29706 -6.78225,3.31141 -11.65734,3.23192c-2.27916,-0.25687 -2.27916,-0.25687 -4.59568,-1.67668c-1.57088,-2.67974 -1.99588,-5.08959 -2.46598,-8.1452c-0.39456,-0.78911 -0.78911,-1.57823 -1.19563,-2.39125c0.64886,-0.83843 1.29772,-1.67686 1.96624,-2.5407c4.97997,-6.60407 8.61842,-12.33192 11.18563,-20.17617c0.78911,-0.78911 1.57823,-1.57823 2.39125,-2.39125z" fill="#123c76"/><path d="M801.29401,265.06588c1.19563,1.19563 1.19563,1.19563 1.64398,4.40887c-0.60454,5.34011 -2.62829,7.42047 -6.42648,11.13426c-4.43021,2.49909 -8.1177,2.6254 -13.15188,2.39125c-0.05087,2.39071 -0.04879,4.783 0,7.17375c1.17492,1.44146 1.17492,1.44146 3.40473,1.31239c2.45197,-0.03892 4.90393,-0.07784 7.3559,-0.11676c0,1.18367 0,2.36734 0,3.58688c-4.14718,2.07359 -8.61762,1.74231 -13.15188,1.19563c-3.13852,-1.71871 -3.13852,-1.71871 -4.7825,-4.7825c-0.85129,-7.60079 2.05771,-13.18116 6.43115,-19.19072c5.64069,-6.78241 10.03575,-8.99156 18.67697,-7.11303z" fill="#194179"/><path d="M935.20402,266.26151c1.97278,0 3.94556,0 5.97813,0c-0.69856,5.72819 -2.51963,10.26311 -4.7825,15.54313c-0.47543,2.37716 -0.90216,4.76734 -1.19563,7.17375c1.13435,-0.76445 2.2687,-1.52891 3.43742,-2.31652c3.73633,-2.46598 3.73633,-2.46598 6.12758,-3.6616c-0.39404,3.64483 -0.68085,5.4811 -3.3627,8.07047c-4.3886,2.50777 -4.3886,2.50777 -7.39793,2.69016c-3.21324,-1.19563 -3.21324,-1.19563 -5.97813,-3.58688c-1.36639,-5.07428 -1.47725,-7.67644 0.51842,-12.58676c0.79065,-1.3455 1.58131,-2.691 2.39592,-4.07727c0.78757,-1.36708 1.57514,-2.73415 2.38658,-4.14265c0.61804,-1.02492 1.23607,-2.04984 1.87283,-3.10582z" fill="#174078"/><path d="M827.59776,267.45713c0.14796,0.96173 0.29592,1.92346 0.44836,2.91434c0.2466,1.01105 0.4932,2.0221 0.74727,3.06379c0.78911,0.39456 1.57823,0.78911 2.39125,1.19563c-1.97278,0 -3.94556,0 -5.97813,0c-0.29283,0.65965 -0.58567,1.3193 -0.88738,1.99894c-1.8116,3.35315 -4.02765,6.10864 -6.43583,9.0606c-0.86617,1.06653 -1.73235,2.13307 -2.62477,3.23192c-0.9941,1.21141 -0.9941,1.21141 -2.00828,2.44729c-1.57823,-0.39456 -3.15645,-0.78911 -4.7825,-1.19563c0.62236,-8.2982 4.71342,-14.84075 10.83535,-20.32563c3.51215,-2.39125 3.51215,-2.39125 8.29465,-2.39125z" fill="#edf3f5"/><path d="M942.37777,300.93463c0.39456,0.78911 0.78911,1.57823 1.19563,2.39125c-1.37576,2.73375 -2.79991,5.25578 -4.40887,7.84629c-0.42153,0.72053 -0.84306,1.44106 -1.27736,2.18342c-3.22527,5.25359 -3.22527,5.25359 -6.59228,6.59228c-0.68277,0.03853 -1.36553,0.07706 -2.06899,0.11676c0,-6.36437 1.373,-9.06165 5.9034,-13.60023c2.37886,-2.23639 4.33049,-4.07077 7.24848,-5.52977z" fill="#e4ecf0"/><path d="M535.86526,265.06588c1.18826,3.88887 1.25333,7.21518 1.05084,11.26503c-0.0578,1.22528 -0.11559,2.45056 -0.17514,3.71298c-0.06704,1.27152 -0.13409,2.54304 -0.20316,3.85309c-0.06242,1.29001 -0.12484,2.58003 -0.18915,3.90913c-0.15482,3.18092 -0.31618,6.36136 -0.48339,9.54165c-1.18367,0 -2.36734,0 -3.58688,0c-0.62683,-23.85446 -0.62683,-23.85446 3.58688,-32.28188z" fill="#cfc65b"/><path d="M908.90026,274.63088c2.76542,2.76542 2.98405,4.15964 3.73633,7.92102c0.20036,0.97714 0.40072,1.95429 0.60715,2.96104c0.21731,1.12356 0.21731,1.12356 0.43902,2.26982c-1.18367,0.39456 -2.36734,0.78911 -3.58688,1.19563c-3.21324,-2.31652 -3.21324,-2.31652 -5.97813,-4.7825c1.3445,-3.55332 2.6578,-6.37795 4.7825,-9.565z" fill="#eaf0f4"/><path d="M797.70714,267.45713c-0.36397,4.24627 -1.16686,5.94392 -3.96051,9.26609c-2.90811,2.4347 -4.31322,3.47661 -7.99574,3.88578c0.10087,-3.42972 0.70174,-5.44825 3.05445,-7.97239c5.92996,-5.17948 5.92996,-5.17948 8.9018,-5.17948z" fill="#eef3f6"/><path d="M941.18214,298.54338c0.39456,1.18367 0.78911,2.36734 1.19563,3.58688c-3.15645,2.36734 -6.3129,4.73468 -9.565,7.17375c0,-3.58688 0,-3.58688 1.8308,-5.50641c1.16517,-0.9363 1.16517,-0.9363 2.35389,-1.89152c0.77678,-0.63345 1.55357,-1.2669 2.35389,-1.91954c0.60416,-0.47624 1.20833,-0.95248 1.8308,-1.44316z" fill="#1d447a"/><path d="M537.06088,255.50088c0.78911,0.78911 1.57823,1.57823 2.39125,2.39125c-1.57823,4.73468 -3.15645,9.46935 -4.7825,14.3475c-0.39456,0 -0.78911,0 -1.19563,0c0.49204,-5.94338 0.95173,-11.29278 3.58688,-16.73875z" fill="#e8efe7"/><path d="M902.92214,286.58713c4.14284,2.36734 4.14284,2.36734 8.36938,4.7825c-0.39456,0.78911 -0.78911,1.57823 -1.19563,2.39125c-1.97278,-0.39456 -3.94556,-0.78911 -5.97813,-1.19563c-0.39456,-1.97278 -0.78911,-3.94556 -1.19563,-5.97813z" fill="#dae8eb"/><path d="M879.00964,273.43526c0.78911,0.78911 1.57823,1.57823 2.39125,2.39125c-1.97278,2.36734 -3.94556,4.73468 -5.97813,7.17375c-0.78911,-0.39456 -1.57823,-0.78911 -2.39125,-1.19563c0,-2.39125 0,-2.39125 2.98906,-5.52977c0.98639,-0.93707 1.97278,-1.87414 2.98906,-2.83961z" fill="#2d5183"/></g><path d="M437.82401,-44.601c202.0128,0 404.02561,0 612.16001,0c0,202.0128 0,404.02561 0,612.16001c-202.0128,0 -404.02561,0 -612.16001,0c0,-202.0128 0,-404.02561 0,-612.16001z" fill="#fefefe"/><path d="M634.3969,195.54215c1.1996,0.35452 2.39921,0.70904 3.63517,1.0743c3.83402,1.13514 7.66325,2.28551 11.49229,3.43731c3.751,1.11883 7.50297,2.23434 11.25551,3.34803c2.48296,0.7369 4.96531,1.47584 7.44704,2.21684c9.74097,2.89332 19.5302,5.58162 29.37117,8.11436c1.0252,0.27043 2.05041,0.54085 3.10668,0.81947c0.89969,0.2319 1.79938,0.46379 2.72633,0.70271c2.21292,0.79007 2.21292,0.79007 4.60417,3.18132c-0.10275,2.39592 -0.10275,2.39592 -1.19563,4.7825c-2.36323,1.30304 -2.36323,1.30304 -5.52977,2.31652c-1.7547,0.58028 -1.7547,0.58028 -3.54484,1.17227c-1.3455,0.42692 -2.691,0.85384 -4.07727,1.2937c-2.37554,0.79146 -4.74806,1.59153 -7.12033,2.39271c-3.60047,1.20777 -7.20799,2.39443 -10.81404,3.58542c-0.39456,11.83669 -0.78911,23.67338 -1.19563,35.86875c-13.05055,5.22022 -13.05055,5.22022 -18.23328,6.80012c-4.95523,1.59575 -9.74632,3.43632 -14.53899,5.45971c-1.15939,0.48828 -2.31879,0.97657 -3.51332,1.47964c-2.32603,0.9877 -4.64671,1.98815 -6.96125,3.00249c-12.31674,5.2273 -19.73665,3.25693 -31.92809,-1.42302c-11.90891,-4.44172 -23.7779,-8.31361 -36.0182,-11.73207c-0.39456,-11.83669 -0.78911,-23.67338 -1.19563,-35.86875c-3.55101,-0.78911 -7.10201,-1.57823 -10.76063,-2.39125c-2.4036,-0.75903 -4.80138,-1.53963 -7.17375,-2.39125c-0.0644,2.54038 -0.11087,5.08121 -0.14945,7.62211c-0.02774,1.41485 -0.05548,2.82971 -0.08407,4.28744c-0.15944,3.76694 -0.15944,3.76694 2.62477,6.02483c0,1.57823 0,3.15645 0,4.7825c-0.78911,0 -1.57823,0 -2.39125,0c0.54251,1.33163 1.08503,2.66325 1.64398,4.03523c1.92978,5.76192 2.6997,11.47441 3.3627,17.48602c0.09999,0.89295 0.19998,1.78591 0.30299,2.70592c0.63913,6.29648 0.75006,12.48754 0.66845,18.81533c-1.94278,0.03226 -3.88572,0.05546 -5.82867,0.07473c-1.62292,0.02081 -1.62292,0.02081 -3.27863,0.04203c-2.84895,-0.11676 -2.84895,-0.11676 -5.2402,-1.31239c-0.07062,-4.30915 -0.11232,-8.61814 -0.14945,-12.9277c-0.02004,-1.20139 -0.04007,-2.40279 -0.06072,-3.64058c-0.04795,-7.45559 0.61078,-14.31133 2.20035,-21.60152c0.19853,-1.22832 0.19853,-1.22832 0.40107,-2.48145c-0.39456,-0.39456 -0.78911,-0.78911 -1.19563,-1.19563c-0.04859,-1.99212 -0.05108,-3.98607 0,-5.97813c0.78911,0 1.57823,0 2.39125,0c-0.59183,-8.87752 -0.59183,-8.87752 -1.19563,-17.93438c-5.12923,-1.57823 -10.25846,-3.15645 -15.54313,-4.7825c-0.39456,-1.97278 -0.78911,-3.94556 -1.19563,-5.97813c8.07395,-3.38267 16.17559,-6.20647 24.5757,-8.65894c1.17366,-0.34775 2.34733,-0.69551 3.55655,-1.0538c3.72309,-1.10191 7.4484,-2.19602 11.17392,-3.28968c3.6684,-1.08287 7.33632,-2.16733 11.00414,-3.25214c2.41447,-0.7129 4.8296,-1.42355 7.24541,-2.1319c5.82604,-1.71036 11.63942,-3.44986 17.43355,-5.26567c1.08023,-0.33523 2.16045,-0.67046 3.27341,-1.01585c2.01319,-0.62678 4.02356,-1.2627 6.0303,-1.90983c10.43561,-3.23221 18.31883,-1.83115 28.58616,1.29221z" fill="#0f3a76"/><path d="M847.92339,259.08776c0.78911,0 1.57823,0 2.39125,0c0,2.76189 0,5.52379 0,8.36938c0.93707,0.27126 1.87414,0.54251 2.83961,0.82199c3.13852,1.56926 3.13852,1.56926 4.67041,4.14732c1.14593,4.53388 0.12515,7.1555 -1.38244,11.54525c-0.46545,1.38865 -0.93091,2.77731 -1.41046,4.20804c-0.55947,1.579 -0.55947,1.579 -1.13024,3.18989c9.47974,-5.09335 13.49802,-14.01026 16.73875,-23.9125c1.97278,0.39456 3.94556,0.78911 5.97813,1.19563c-0.39456,3.15645 -0.78911,6.3129 -1.19563,9.565c0.84383,-0.9941 0.84383,-0.9941 1.7047,-2.00828c0.74442,-0.86617 1.48883,-1.73235 2.25581,-2.62477c1.10275,-1.29001 1.10275,-1.29001 2.22779,-2.60609c2.18108,-2.32586 2.18108,-2.32586 5.76796,-4.71711c5.42878,0.64628 5.42878,0.64628 7.17375,2.39125c0.90487,7.7958 -0.72416,14.31334 -3.58688,21.52125c2.36734,-0.78911 4.73468,-1.57823 7.17375,-2.39125c-1.63781,3.77956 -2.37817,4.77378 -5.97813,7.17375c-3.06379,0.29891 -3.06379,0.29891 -5.97813,0c-2.39125,-2.39125 -2.39125,-2.39125 -2.44729,-4.68442c0.76135,-5.82035 1.85726,-11.24176 3.64292,-16.83683c-9.92112,2.62618 -15.14745,13.42347 -20.32563,21.52125c-2.31652,-0.44836 -2.31652,-0.44836 -4.7825,-1.19563c-0.59183,-1.18367 -0.59183,-1.18367 -1.19563,-2.39125c-1.59055,1.22066 -1.59055,1.22066 -3.21324,2.46598c-3.96051,2.31652 -3.96051,2.31652 -7.24848,2.16707c-2.69016,-1.04617 -2.69016,-1.04617 -5.08141,-3.43742c0.274,-4.65807 1.1536,-8.55763 3.06379,-12.77824c2.03602,-3.97215 2.03602,-3.97215 1.71871,-8.74301c-0.78911,0 -1.57823,0 -2.39125,0c-0.86926,1.66685 -0.86926,1.66685 -1.75607,3.36737c-9.66833,18.03408 -9.66833,18.03408 -17.37393,21.74076c-3.13852,-0.21484 -3.13852,-0.21484 -5.97813,-1.19563c-2.16707,-3.06379 -2.16707,-3.06379 -3.58688,-5.97813c-1.01105,1.20833 -2.0221,2.41666 -3.06379,3.6616c-3.20429,3.21188 -3.70239,3.49833 -8.51883,3.6616c-4.18233,-1.42041 -5.46111,-2.3232 -7.54738,-6.12758c-1.15901,0.98639 -2.31802,1.97278 -3.51215,2.98906c-4.40388,3.14179 -7.83067,3.8415 -13.19391,3.47479c-2.42394,-0.48572 -2.42394,-0.48572 -5.56246,-2.20443c-2.1327,-3.97457 -2.04747,-6.49962 -1.33574,-10.90074c2.24476,-7.39589 7.34615,-14.54889 14.03925,-18.4668c4.33414,-1.04617 4.33414,-1.04617 8.36938,-1.19563c1.18367,0.78911 2.36734,1.57823 3.58688,2.39125c0.9057,4.98134 0.23359,6.8267 -2.61543,11.05953c-4.45294,4.35399 -7.11677,5.59529 -13.30133,5.82867c-1.06037,-0.04932 -2.12074,-0.09864 -3.21324,-0.14945c-0.05087,2.39071 -0.04879,4.783 0,7.17375c1.29694,1.54431 1.29694,1.54431 4.40887,1.56926c5.01565,-0.47317 7.14688,-2.10726 11.13426,-5.15613c2.82089,-3.33332 2.82089,-3.33332 5.30559,-7.0243c4.56893,-6.32087 9.09018,-12.12984 16.21566,-15.69258c7.45609,-0.54226 7.45609,-0.54226 10.76063,1.4198c1.19563,2.16707 1.19563,2.16707 0.82199,5.38031c-0.27126,0.91241 -0.54251,1.82482 -0.82199,2.76488c-0.78911,0 -1.57823,0 -2.39125,0c-0.59183,-2.95917 -0.59183,-2.95917 -1.19563,-5.97813c-7.41805,2.61814 -11.69665,5.74636 -15.51043,12.96039c-1.55346,3.41762 -2.42394,5.97684 -2.42394,9.75649c2.22384,-0.05499 2.22384,-0.05499 4.7825,-1.19563c2.41642,-3.01296 4.54147,-6.07363 6.64366,-9.30579c1.34741,-1.94523 1.34741,-1.94523 4.11697,-5.04171c3.33,-0.44369 3.33,-0.44369 5.97813,0c-0.17262,1.01105 -0.34524,2.0221 -0.52309,3.06379c-0.67957,4.15292 -1.28473,8.31193 -1.86816,12.47934c7.38452,-3.25788 11.33068,-10.27622 14.52031,-17.40662c1.19877,-3.108 1.19877,-3.108 1.62063,-7.32787c0.59781,-3.96051 0.59781,-3.96051 2.98906,-6.35176z" fill="#133d77"/><path d="M913.68276,260.28338c2.5407,0.44836 2.5407,0.44836 4.7825,1.19563c-0.25893,0.92474 -0.25893,0.92474 -0.52309,1.86816c-0.22194,0.96173 -0.44388,1.92346 -0.67254,2.91434c-0.29592,1.23299 -0.59183,2.46598 -0.89672,3.73633c-0.39309,6.09297 1.26074,10.89702 3.28797,16.5893c6.00457,-2.82877 8.15566,-6.5454 11.13426,-12.18043c0.42923,-0.78218 0.85847,-1.56435 1.30071,-2.37023c1.04975,-1.91755 2.08087,-3.84529 3.10816,-5.77496c1.97278,0 3.94556,0 5.97813,0c-0.69856,5.72819 -2.51963,10.26311 -4.7825,15.54313c-0.47543,2.37716 -0.90216,4.76734 -1.19563,7.17375c8.95927,-5.3329 14.28656,-12.39323 19.13,-21.52125c2.95917,0.59183 2.95917,0.59183 5.97813,1.19563c-0.68229,7.67581 -3.19644,14.3665 -5.97813,21.52125c5.58655,-3.37791 9.15844,-6.78828 13.15188,-11.95625c0.59183,1.18367 0.59183,1.18367 1.19563,2.39125c-2.83009,5.14562 -5.62611,7.86126 -10.46172,11.20898c-6.55008,4.96306 -9.12421,10.52582 -12.45161,17.79601c-2.96134,6.35315 -5.61375,10.32668 -11.7598,14.0375c-3.3627,0.59781 -3.3627,0.59781 -5.97813,0c-2.39125,-2.39125 -2.39125,-2.39125 -2.46598,-6.12758c1.27828,-7.08198 6.79028,-12.17419 12.46065,-16.20165c0.94324,-0.64578 1.88647,-1.29156 2.85829,-1.9569c6.28738,-4.60575 7.4948,-10.10173 8.66828,-17.56074c-0.52094,0.66273 -1.04188,1.32546 -1.5786,2.00828c-7.61007,9.25727 -7.61007,9.25727 -13.96453,9.94797c-3.3627,-1.34508 -3.3627,-1.34508 -5.97813,-3.58688c-0.76128,-2.53136 -0.76128,-2.53136 -1.19563,-4.7825c-0.74904,0.76291 -1.49808,1.52582 -2.26982,2.31185c-0.97714,0.98793 -1.95429,1.97586 -2.96104,2.99373c-0.97098,0.98485 -1.94196,1.9697 -2.94236,2.98439c-4.00323,3.82258 -6.72955,4.01339 -12.2645,3.92314c-2.27916,-0.25687 -2.27916,-0.25687 -4.59568,-1.67668c-1.57088,-2.67974 -1.99588,-5.08959 -2.46598,-8.1452c-0.39456,-0.78911 -0.78911,-1.57823 -1.19563,-2.39125c0.64886,-0.83843 1.29772,-1.67686 1.96624,-2.5407c4.97997,-6.60407 8.61842,-12.33192 11.18563,-20.17617c0.78911,-0.78911 1.57823,-1.57823 2.39125,-2.39125z" fill="#153e77"/><path d="M847.92339,259.08776c0.78911,0 1.57823,0 2.39125,0c0,2.76189 0,5.52379 0,8.36938c1.40561,0.40689 1.40561,0.40689 2.83961,0.82199c3.13852,1.56926 3.13852,1.56926 4.67041,4.14732c1.14593,4.53388 0.12515,7.1555 -1.38244,11.54525c-0.46545,1.38865 -0.93091,2.77731 -1.41046,4.20804c-0.55947,1.579 -0.55947,1.579 -1.13024,3.18989c9.47974,-5.09335 13.49802,-14.01026 16.73875,-23.9125c2.95917,0.59183 2.95917,0.59183 5.97813,1.19563c-0.39456,3.15645 -0.78911,6.3129 -1.19563,9.565c0.56255,-0.66273 1.1251,-1.32546 1.7047,-2.00828c0.74442,-0.86617 1.48883,-1.73235 2.25581,-2.62477c1.10275,-1.29001 1.10275,-1.29001 2.22779,-2.60609c2.18108,-2.32586 2.18108,-2.32586 5.76796,-4.71711c5.42878,0.64628 5.42878,0.64628 7.17375,2.39125c0.90487,7.7958 -0.72416,14.31334 -3.58688,21.52125c2.36734,-0.78911 4.73468,-1.57823 7.17375,-2.39125c-1.63781,3.77956 -2.37817,4.77378 -5.97813,7.17375c-3.06379,0.29891 -3.06379,0.29891 -5.97813,0c-2.39125,-2.39125 -2.39125,-2.39125 -2.44729,-4.68442c0.76135,-5.82035 1.85726,-11.24176 3.64292,-16.83683c-9.92112,2.62618 -15.14745,13.42347 -20.32563,21.52125c-2.31652,-0.44836 -2.31652,-0.44836 -4.7825,-1.19563c-0.39456,-0.78911 -0.78911,-1.57823 -1.19563,-2.39125c-1.59055,1.22066 -1.59055,1.22066 -3.21324,2.46598c-3.96051,2.31652 -3.96051,2.31652 -7.24848,2.16707c-2.69016,-1.04617 -2.69016,-1.04617 -5.08141,-3.43742c0.274,-4.65807 1.1536,-8.55763 3.06379,-12.77824c2.03602,-3.97215 2.03602,-3.97215 1.71871,-8.74301c-0.78911,0 -1.57823,0 -2.39125,0c-1.57823,3.15645 -3.15645,6.3129 -4.7825,9.565c-0.78911,-0.78911 -1.57823,-1.57823 -2.39125,-2.39125c0.56717,-1.20833 1.13435,-2.41666 1.71871,-3.6616c1.87216,-4.30421 2.42595,-8.43 3.06379,-13.07715c0.78911,-0.78911 1.57823,-1.57823 2.39125,-2.39125z" fill="#143d77"/><path d="M783.35964,235.17526c2.39125,3.58688 2.39125,3.58688 2.16707,7.0243c-1.01271,3.89504 -2.10159,6.52981 -4.55832,9.71445c-2.61543,0.97145 -2.61543,0.97145 -4.7825,1.19563c0.79507,-5.24747 2.61552,-9.54246 4.7825,-14.3475c-3.29254,-0.24305 -3.29254,-0.24305 -7.17375,1.19563c-7.79833,7.46439 -11.45941,17.17384 -15.24422,27.05102c-1.11435,2.83039 -2.22901,5.66067 -3.34401,8.49081c-0.50784,1.30581 -1.01567,2.61162 -1.5389,3.95701c-1.57799,4.01107 -3.24563,7.96798 -4.98099,11.91305c1.18367,-0.59183 1.18367,-0.59183 2.39125,-1.19563c3.44783,-0.08602 6.86575,-0.11109 10.31227,-0.07473c0.95865,0.00539 1.9173,0.01079 2.905,0.01635c2.36949,0.0141 4.73894,0.03555 7.10836,0.05838c0,1.18367 0,2.36734 0,3.58688c-8.11879,2.70626 -17.41598,2.42952 -25.93012,2.69016c-0.94169,0.03082 -1.88339,0.06165 -2.85362,0.09341c-0.75983,-0.12946 -1.51966,-0.25893 -2.30251,-0.39231c-0.78911,-1.18367 -1.57823,-2.36734 -2.39125,-3.58688c0.737,-0.64876 1.474,-1.29753 2.23333,-1.96595c2.87119,-3.17235 3.8075,-5.55714 5.07586,-9.62134c0.43232,-1.32777 0.86463,-2.65555 1.31005,-4.02356c0.86897,-2.76071 1.73464,-5.52245 2.59675,-8.28531c4.46455,-13.67711 10.67268,-26.18939 23.43378,-33.69c3.83734,-1.58838 6.83668,-0.75412 10.78398,0.19616z" fill="#153e78"/><path d="M913.68276,260.28338c2.5407,0.44836 2.5407,0.44836 4.7825,1.19563c-0.25893,0.92474 -0.25893,0.92474 -0.52309,1.86816c-0.22194,0.96173 -0.44388,1.92346 -0.67254,2.91434c-0.29592,1.23299 -0.59183,2.46598 -0.89672,3.73633c-0.39309,6.09297 1.26074,10.89702 3.28797,16.5893c2.36734,-1.18367 4.73468,-2.36734 7.17375,-3.58688c-1.66659,3.77482 -3.63034,6.31441 -6.57594,9.19137c-0.72746,0.71976 -1.45493,1.43951 -2.20443,2.18108c-3.66917,3.29706 -6.78225,3.31141 -11.65734,3.23192c-2.27916,-0.25687 -2.27916,-0.25687 -4.59568,-1.67668c-1.57088,-2.67974 -1.99588,-5.08959 -2.46598,-8.1452c-0.39456,-0.78911 -0.78911,-1.57823 -1.19563,-2.39125c0.64886,-0.83843 1.29772,-1.67686 1.96624,-2.5407c4.97997,-6.60407 8.61842,-12.33192 11.18563,-20.17617c0.78911,-0.78911 1.57823,-1.57823 2.39125,-2.39125z" fill="#123c76"/><path d="M801.29401,265.06588c1.19563,1.19563 1.19563,1.19563 1.64398,4.40887c-0.60454,5.34011 -2.62829,7.42047 -6.42648,11.13426c-4.43021,2.49909 -8.1177,2.6254 -13.15188,2.39125c-0.05087,2.39071 -0.04879,4.783 0,7.17375c1.17492,1.44146 1.17492,1.44146 3.40473,1.31239c2.45197,-0.03892 4.90393,-0.07784 7.3559,-0.11676c0,1.18367 0,2.36734 0,3.58688c-4.14718,2.07359 -8.61762,1.74231 -13.15188,1.19563c-3.13852,-1.71871 -3.13852,-1.71871 -4.7825,-4.7825c-0.85129,-7.60079 2.05771,-13.18116 6.43115,-19.19072c5.64069,-6.78241 10.03575,-8.99156 18.67697,-7.11303z" fill="#194179"/><path d="M935.20402,266.26151c1.97278,0 3.94556,0 5.97813,0c-0.69856,5.72819 -2.51963,10.26311 -4.7825,15.54313c-0.47543,2.37716 -0.90216,4.76734 -1.19563,7.17375c1.13435,-0.76445 2.2687,-1.52891 3.43742,-2.31652c3.73633,-2.46598 3.73633,-2.46598 6.12758,-3.6616c-0.39404,3.64483 -0.68085,5.4811 -3.3627,8.07047c-4.3886,2.50777 -4.3886,2.50777 -7.39793,2.69016c-3.21324,-1.19563 -3.21324,-1.19563 -5.97813,-3.58688c-1.36639,-5.07428 -1.47725,-7.67644 0.51842,-12.58676c0.79065,-1.3455 1.58131,-2.691 2.39592,-4.07727c0.78757,-1.36708 1.57514,-2.73415 2.38658,-4.14265c0.61804,-1.02492 1.23607,-2.04984 1.87283,-3.10582z" fill="#174078"/><path d="M827.59776,267.45713c0.14796,0.96173 0.29592,1.92346 0.44836,2.91434c0.2466,1.01105 0.4932,2.0221 0.74727,3.06379c0.78911,0.39456 1.57823,0.78911 2.39125,1.19563c-1.97278,0 -3.94556,0 -5.97813,0c-0.29283,0.65965 -0.58567,1.3193 -0.88738,1.99894c-1.8116,3.35315 -4.02765,6.10864 -6.43583,9.0606c-0.86617,1.06653 -1.73235,2.13307 -2.62477,3.23192c-0.9941,1.21141 -0.9941,1.21141 -2.00828,2.44729c-1.57823,-0.39456 -3.15645,-0.78911 -4.7825,-1.19563c0.62236,-8.2982 4.71342,-14.84075 10.83535,-20.32563c3.51215,-2.39125 3.51215,-2.39125 8.29465,-2.39125z" fill="#edf3f5"/><path d="M942.37777,300.93463c0.39456,0.78911 0.78911,1.57823 1.19563,2.39125c-1.37576,2.73375 -2.79991,5.25578 -4.40887,7.84629c-0.42153,0.72053 -0.84306,1.44106 -1.27736,2.18342c-3.22527,5.25359 -3.22527,5.25359 -6.59228,6.59228c-0.68277,0.03853 -1.36553,0.07706 -2.06899,0.11676c0,-6.36437 1.373,-9.06165 5.9034,-13.60023c2.37886,-2.23639 4.33049,-4.07077 7.24848,-5.52977z" fill="#e4ecf0"/><path d="M535.86526,265.06588c1.18826,3.88887 1.25333,7.21518 1.05084,11.26503c-0.0578,1.22528 -0.11559,2.45056 -0.17514,3.71298c-0.06704,1.27152 -0.13409,2.54304 -0.20316,3.85309c-0.06242,1.29001 -0.12484,2.58003 -0.18915,3.90913c-0.15482,3.18092 -0.31618,6.36136 -0.48339,9.54165c-1.18367,0 -2.36734,0 -3.58688,0c-0.62683,-23.85446 -0.62683,-23.85446 3.58688,-32.28188z" fill="#cfc65b"/><path d="M908.90026,274.63088c2.76542,2.76542 2.98405,4.15964 3.73633,7.92102c0.20036,0.97714 0.40072,1.95429 0.60715,2.96104c0.21731,1.12356 0.21731,1.12356 0.43902,2.26982c-1.18367,0.39456 -2.36734,0.78911 -3.58688,1.19563c-3.21324,-2.31652 -3.21324,-2.31652 -5.97813,-4.7825c1.3445,-3.55332 2.6578,-6.37795 4.7825,-9.565z" fill="#eaf0f4"/><path d="M797.70714,267.45713c-0.36397,4.24627 -1.16686,5.94392 -3.96051,9.26609c-2.90811,2.4347 -4.31322,3.47661 -7.99574,3.88578c0.10087,-3.42972 0.70174,-5.44825 3.05445,-7.97239c5.92996,-5.17948 5.92996,-5.17948 8.9018,-5.17948z" fill="#eef3f6"/><path d="M941.18214,298.54338c0.39456,1.18367 0.78911,2.36734 1.19563,3.58688c-3.15645,2.36734 -6.3129,4.73468 -9.565,7.17375c0,-3.58688 0,-3.58688 1.8308,-5.50641c1.16517,-0.9363 1.16517,-0.9363 2.35389,-1.89152c0.77678,-0.63345 1.55357,-1.2669 2.35389,-1.91954c0.60416,-0.47624 1.20833,-0.95248 1.8308,-1.44316z" fill="#1d447a"/><path d="M537.06088,255.50088c0.78911,0.78911 1.57823,1.57823 2.39125,2.39125c-1.57823,4.73468 -3.15645,9.46935 -4.7825,14.3475c-0.39456,0 -0.78911,0 -1.19563,0c0.49204,-5.94338 0.95173,-11.29278 3.58688,-16.73875z" fill="#e8efe7"/><path d="M902.92214,286.58713c4.14284,2.36734 4.14284,2.36734 8.36938,4.7825c-0.39456,0.78911 -0.78911,1.57823 -1.19563,2.39125c-1.97278,-0.39456 -3.94556,-0.78911 -5.97813,-1.19563c-0.39456,-1.97278 -0.78911,-3.94556 -1.19563,-5.97813z" fill="#dae8eb"/><path d="M879.00964,273.43526c0.78911,0.78911 1.57823,1.57823 2.39125,2.39125c-1.97278,2.36734 -3.94556,4.73468 -5.97813,7.17375c-0.78911,-0.39456 -1.57823,-0.78911 -2.39125,-1.19563c0,-2.39125 0,-2.39125 2.98906,-5.52977c0.98639,-0.93707 1.97278,-1.87414 2.98906,-2.83961z" fill="#2d5183"/></g>
</svg>